<svg width="18" height="17" viewBox="0 0 18 17" fill="none" xmlns="http://www.w3.org/2000/svg">
<path d="M15.75 13.4583L11.8845 9.80759C12.5991 8.78185 12.8854 7.54217 12.6878 6.32857C12.4902 5.11497 11.8228 4.01378 10.8149 3.23819C9.80703 2.46261 8.53028 2.06781 7.23187 2.13023C5.93345 2.19264 4.70575 2.70784 3.78644 3.57608C2.86714 4.44431 2.32163 5.60381 2.25554 6.83009C2.18945 8.05636 2.60748 9.26219 3.42868 10.2141C4.24989 11.166 5.41586 11.7963 6.70085 11.9829C7.98584 12.1695 9.29844 11.8992 10.3845 11.2243L14.25 14.875L15.75 13.4583ZM3.75001 7.08334C3.75001 5.13046 5.43226 3.54167 7.50001 3.54167C9.56776 3.54167 11.25 5.13046 11.25 7.08334C11.25 9.03621 9.56776 10.625 7.50001 10.625C5.43226 10.625 3.75001 9.03621 3.75001 7.08334Z" fill="#F8ECEC"/>
</svg>
